# xmcd
#
# Track frame offsets:
#	150
#	14566
#	28622
#	42405
#	52255
#	65560
#	73556
#	87153
#	98946
#	108843
#	132156
#	142128
#
# Disc length: 2018 seconds
#
# Revision: 1
# Processed by: cddbd v1.5.2PL0 Copyright (c) Steve Scherf et al.
# Submitted via: audiograbber 1.83.01
#
DISCID=af07e00c
DTITLE=Johnny Cash - Orange Blossom Special
DYEAR=1964
DGENRE=Country
TTITLE0=Orange Blossom Special
TTITLE1=The Long Black Veil
TTITLE2=It Ain't Me, Babe
TTITLE3=The Wall
TTITLE4=Don't Think Twice, It's All Right
TTITLE5=You Wild Colorado
TTITLE6=Mama, You Been On My Mind
TTITLE7=When It's Springtime In Alaska (It's Forty Below)
TTITLE8=All Of God's Children Ain't Free
TTITLE9=Danny Boy
TTITLE10=Wildwood Flower
TTITLE11=Amen
EXTD=
EXTT0=
EXTT1=
EXTT2=
EXTT3=
EXTT4=
EXTT5=
EXTT6=
EXTT7=
EXTT8=
EXTT9=
EXTT10=
EXTT11=
PLAYORDER=
